<?xml version="1.0" ?><!DOCTYPE svg  PUBLIC '-//W3C//DTD SVG 1.1//EN'  'http://www.w3.org/Graphics/SVG/1.1/DTD/svg11.dtd'><svg enable-background="new 0 0 512 512" height="512px" id="Layer_1" version="1.1" viewBox="0 0 512 512" width="512px" xml:space="preserve" xmlns="http://www.w3.org/2000/svg" xmlns:xlink="http://www.w3.org/1999/xlink"><g><path d="M282.419,82.49c11.812-8.092,19.564-21.676,19.564-37.075c0-24.806-20.109-44.915-44.915-44.915   c-24.805,0-44.916,20.109-44.916,44.915c0,15.206,7.563,28.637,19.126,36.763C123.607,94.209,39.892,185.525,39.892,296.409   C39.892,415.477,136.416,512,255.482,512c119.067,0,215.592-96.523,215.592-215.591C471.074,186.463,388.773,95.747,282.419,82.49z    M257.407,26.921c10.61,0,19.212,8.602,19.212,19.212c0,10.61-8.601,19.212-19.212,19.212c-10.61,0-19.211-8.602-19.211-19.212   C238.196,35.522,246.798,26.921,257.407,26.921z M255.602,474.731c-98.576,0-178.485-79.91-178.485-178.484   c0-98.575,79.91-178.486,178.485-178.486c98.573,0,178.484,79.911,178.484,178.486   C434.086,394.821,354.175,474.731,255.602,474.731z" fill="#424852"/><path d="M361.149,169.247l-66.01,159.448l-143.979,94.351l67.121-157.153l-0.238-0.192L361.149,169.247   c-0.067-0.056-0.133-0.112-0.199-0.167c-70.563-57.874-174.681-47.587-232.555,22.977   c-57.874,70.563-47.586,174.682,22.977,232.556c70.563,57.873,174.681,47.586,232.555-22.979   C441.746,331.139,431.53,227.152,361.149,169.247z" fill="#424852"/><polygon fill="#424852" points="276.355,318.029 230.589,281.188 199.508,366.644  "/></g></svg>